STARTFONT 2.1
FONT -FontForge-Knitting-Regular-R-Normal--78-750-75-75-P-640-ISO10646-1
SIZE 75 75 75
FONTBOUNDINGBOX 86 77 -7 -15
COMMENT "Generated by fontforge, http://fontforge.sourceforge.net"
COMMENT "Copyright (c) 2023, Jose D. Montoya"
COMMENT "Based heavily on the svg files from https://github.com/marnen/knitting_symbols"
STARTPROPERTIES 31
FOUNDRY "FontForge"
FAMILY_NAME "Knitting"
WEIGHT_NAME "Regular"
SLANT "R"
SETWIDTH_NAME "Normal"
ADD_STYLE_NAME ""
PIXEL_SIZE 78
POINT_SIZE 750
RESOLUTION_X 75
RESOLUTION_Y 75
SPACING "P"
AVERAGE_WIDTH 640
CHARSET_REGISTRY "ISO10646"
CHARSET_ENCODING "1"
FONTNAME_REGISTRY ""
CHARSET_COLLECTIONS "ISO10646-1"
FONT_NAME "Knitting"
FACE_NAME "Knitting"
COPYRIGHT "Copyright (c) 2023, Jose D. Montoya"
FONT_VERSION "001.000"
FONT_ASCENT 62
FONT_DESCENT 16
UNDERLINE_POSITION -8
UNDERLINE_THICKNESS 4
X_HEIGHT 52
CAP_HEIGHT 32
RAW_ASCENT 800
RAW_DESCENT 200
FIGURE_WIDTH -1
AVG_LOWERCASE_WIDTH 619
AVG_UPPERCASE_WIDTH 634
ENDPROPERTIES
CHARS 83
STARTCHAR A
ENCODING 65
SWIDTH 611 0
DWIDTH 48 0
BBX 34 72 7 -13
BITMAP
000FFC0000
003FFF0000
00FFFFC000
01F807F000
07E001F800
0780007C00
0F00003C00
1E00001E00
3C00000F00
3C00000700
7800000780
7800000380
7000000380
70000003C0
70000003C0
F0000001C0
F0000001C0
F0000001C0
F0000001C0
F0000001C0
F0000001C0
F0000001C0
F0000001C0
F0000001C0
F0000001C0
F0000001C0
F0000001C0
F0000001C0
F0004001C0
F007FC01C0
F01FFE01C0
F03FFF01C0
F03FFF81C0
F07FFFC1C0
F07FFFC1C0
F0FFFFC1C0
F0FFFFC1C0
F0FFFFE1C0
F0FFFFE1C0
F0FFFFC1C0
F0FFFFC1C0
F07FFFC1C0
F07FFF81C0
F03FFF81C0
F01FFF01C0
F00FFC01C0
F003F001C0
F0000001C0
F0000001C0
F0000001C0
F0000001C0
F0000001C0
F0000001C0
F0000001C0
F0000001C0
F0000001C0
F0000001C0
F0000001C0
F0000001C0
F0000001C0
F0000001C0
F0000001C0
F0000001C0
F0000001C0
F0000001C0
F0000001C0
F0000001C0
F0000001C0
F0000001C0
F0000001C0
F0000001C0
6000000180
ENDCHAR
STARTCHAR B
ENCODING 66
SWIDTH 824 0
DWIDTH 64 0
BBX 59 58 4 1
BITMAP
F000000000000000
F800000000000000
FC00000000000000
FE00000000000000
7F00000000000000
3F80000000000000
1FC0000000000000
0FE0000000000000
07F0000000000000
03F8000000000000
01FC000000000000
00FE000000000000
007F000000000000
001FC00000000000
000FE00000000000
0007F00000000000
0003F83F80000000
0001FCFFF0000000
0000FFFBF8000000
00007F803C000000
00003F800E000000
00001FC007000000
00003FE003800000
00003FF003800000
000033F801800000
000071FC01C00000
000070FE00C00000
0000607F00C00000
0000603F80C00000
0000601FC0C00000
0000700FE0C00000
00007007F1C00000
00003003F9800000
00003801FF800000
00003800FF800000
00001C007F000000
00000E003F800000
000007803FC00000
000003FBFFE00000
000001FFE7F00000
0000003F83F80000
0000000001FC0000
00000000007F0000
00000000003F8000
00000000001FC000
00000000000FE000
000000000007F000
000000000003F800
000000000001FC00
000000000000FE00
0000000000007F00
0000000000003F80
0000000000001FC0
0000000000000FE0
00000000000007E0
00000000000003E0
00000000000001E0
0000000000000080
ENDCHAR
STARTCHAR C
ENCODING 67
SWIDTH 705 0
DWIDTH 55 0
BBX 51 31 14 7
BITMAP
00FF8000000000
03FFE000000000
0F80F800000000
1E003C00000000
1C001C00000000
38000E00000000
70000700000000
60000300000000
E0000380000000
E0000380000000
C0000180000000
C0200180000000
C0780180000000
C03C0180000000
E01F0380000000
E00F8380000000
6007C300000000
7003F700000000
7001FF00000000
38007E00000000
1C003F00000000
0F007F80000000
07F7FFC0000000
03FFC3F0000000
007F00FC000000
0000003F800000
0000000FF80000
00000001FFE000
000000001FFF80
0000000001FFE0
00000000000FE0
ENDCHAR
STARTCHAR D
ENCODING 68
SWIDTH 628 0
DWIDTH 49 0
BBX 51 32 -6 6
BITMAP
000000001FC000
000000007FF800
00000001FCFC00
00000003C01F00
00000007800700
0000000E000380
0000000E0001C0
0000001C0000C0
000000180000E0
000000380000E0
00000038000060
00000038000060
0000003803C060
0000003807C060
000000380F8060
000000383F00E0
000000187C00E0
0000001CF800C0
0000000FF001C0
0000000FE00380
0000000F800700
0000003FC01F00
0000007FFCFC00
000001F87FF800
000007E01FC000
00001FC0000000
0001FF00000000
001FF800000000
03FFC000000000
7FFC0000000000
FFC00000000000
F8000000000000
ENDCHAR
STARTCHAR E
ENCODING 69
SWIDTH 705 0
DWIDTH 55 0
BBX 69 8 -7 4
BITMAP
E00000000000000018
FF00000000000001F8
7FF000000000001FF8
07FF8000000003FFE0
007FFF800003FFFE00
0003FFFFFFFFFFC000
00000FFFFFFFF80000
00000003FFC0000000
ENDCHAR
STARTCHAR K
ENCODING 75
SWIDTH 842 0
DWIDTH 66 0
BBX 53 51 7 4
BITMAP
000000F0000000
000001F8000000
000001FC000000
000003FE000000
000007FF000000
00000FFF800000
00000FFFC00000
00001F8FC00000
00003F07E00000
00007E03F00000
0000FE01F80000
0001FC01FC0000
0003F800FE0000
0007F0007F0000
000FE0003F8000
001FC0001FC000
001F80000FE000
003F000007E000
007E000003F000
00FC000001F800
01FC000000FC00
03F8000000FE00
07F00000007F00
0FE00000003F80
1FC00000001FC0
3F803FFFF00FE0
3F007FFFF007F0
7E003FFFF003F0
FC000000F001F8
F8000001E000F8
F8000001C00078
60000003C00030
00000003800000
00000007000000
00000007000000
0000000E000000
0000000E000000
0000001C000000
0000001C000000
0000003C000000
00000038000000
00000078000000
00000078000000
00000070000000
000000F0000000
000000F0000000
000000E0000000
000000E0000000
000001E0000000
000001E0000000
000001C0000000
ENDCHAR
STARTCHAR X
ENCODING 88
SWIDTH 911 0
DWIDTH 71 0
BBX 64 28 3 5
BITMAP
0000000000000FF8
000000000000FFFE
F0000000000FFF3E
FE000000007FC00F
3F80000001FC0007
07F000000FE00006
00FC00003F00000E
003F8000FC00003C
0007F001F0000078
0001FC07C00001F0
00003E0F000003E0
0000063E00000F80
0000007800003E00
001800F00001F800
001C01E00007E000
000F0380003F8000
0007870003FC0000
0003FF83FFE00000
0000FFFFFF060000
00003FFFE00FC000
000078000007F000
000070000000FE00
0000E00000001FC0
0000E000000007F0
0000C000000000FE
0000C0003FFFE01F
0000C0003FFFE007
0000C00000000000
ENDCHAR
STARTCHAR Z
ENCODING 90
SWIDTH 824 0
DWIDTH 64 0
BBX 50 51 7 4
BITMAP
000001E0000000
00000FF8000000
00001FFE000000
60003FFF000180
F0007FFF8003C0
F800FFFFC007C0
F800FC0FC007C0
F801F807E007C0
F801F003E007C0
F801F003E007C0
F803E001F007C0
F803E001F007C0
F803E001F007C0
F803E001F007C0
F803E001F007C0
F807C000F807C0
F807C000F807C0
F807C000F807C0
F807C000F807C0
F807C000F807C0
F807C000F807C0
F807C000F807C0
F807C000F807C0
F807C000F807C0
F807C000F807C0
F807C000F807C0
F807C000F007C0
F803E001F007C0
F803E001F007C0
F803E001F007C0
F803E001F007C0
F801F003E007C0
F801F003E007C0
F801F807C007C0
F800F80FC007C0
F800FC0F8007C0
F8007E1F8007C0
F8003F3F0007C0
F8003FFE0007C0
F8001FFE0007C0
F8000FFC0007C0
F80007F80007C0
F80007F80007C0
F8001FFE0007C0
7C003FFF000F80
7E00FFFFC03F80
7FFFFE1FFFFF00
3FFFFC0FFFFF00
1FFFF807FFFE00
07FFE001FFF800
01FF80003FE000
ENDCHAR
STARTCHAR grave
ENCODING 96
SWIDTH 694 0
DWIDTH 54 0
BBX 40 53 8 1
BITMAP
0000000007
E00000001E
F800000078
7E000001F0
3F800007E0
1FC0000FC0
0FF0003F00
03F800FE00
01FE01F800
007F07F000
003FCFC000
000FFF8000
0007FF0000
0001FC0000
0003FE0000
0007FF8000
000FDFC000
001F8FE000
003F07F000
007E03F800
00FC00FC00
01F8007E00
01F0003F00
03E0003F00
07C0001F80
07C0000FC0
0F800007C0
1F800007E0
1F000003E0
1F000003E0
3E000003F0
3E000001F0
3E000001F0
3E000001F0
3C000001F0
7C000001F0
7C000001F0
3E000001F0
3E000001F0
3E000001F0
3E000003E0
3F000003E0
1F000007E0
1F80000FC0
0FC0000F80
07E0001F80
07F0007F00
03F800FE00
01FE07FC00
00FFFFF000
003FFFE000
000FFF8000
0003FC0000
ENDCHAR
STARTCHAR a
ENCODING 97
SWIDTH 694 0
DWIDTH 54 0
BBX 40 53 7 2
BITMAP
0000000003
C00000000E
F80000003C
FE000000F8
7F000003E0
1FC0000FC0
0FF0003F80
03F8007E00
01FE01FC00
007F03F000
003FCFE000
001FFF8000
0007FF0000
0003FE0000
0001FE0000
0003FF0000
000FFFC000
001FCFE000
003F07F000
007E03F800
00FC01FC00
00F800FE00
01F0007F00
03E0003F00
07E0001F80
07C0000FC0
0F80000FC0
0F800007E0
1F000003E0
1F000003E0
3E00F803F0
3E01FC01F0
3E03FE01F0
3E07FF01F0
3E07FF01F0
3C07FF01F0
3C07FF01F0
3E07FF01F0
3E03FE01F0
3E01FE01F0
3E00F803F0
1F000003E0
1F000007E0
1F800007C0
0FC0000F80
07E0001F80
07F0007F00
03F800FE00
01FE07FC00
00FFFFF800
003FFFE000
000FFF8000
0003FC0000
ENDCHAR
STARTCHAR b
ENCODING 98
SWIDTH 841 0
DWIDTH 66 0
BBX 29 50 23 3
BITMAP
F0000000
F0000000
F0000000
F0000000
F0000000
F0000000
F0000000
F0000000
F0000000
F0000000
F0000060
F00001F0
F00007F8
F0000FF0
F0003FF0
F000FFC0
F003FF00
F00FFC00
F03FF800
F0FFE000
F3FF8000
FFFE0000
FFF80000
FFE00000
FF800000
FE000000
F8000000
F0000000
F0000000
F0000000
F0000000
F0000000
F0000000
F0000000
F0000000
F0000000
F0000000
F0000000
F0000000
F0000000
F0000000
F0000000
F0000000
F0000000
F0000000
F0000000
F0000000
F0000000
F0000000
F0000000
ENDCHAR
STARTCHAR c
ENCODING 99
SWIDTH 841 0
DWIDTH 66 0
BBX 29 50 12 3
BITMAP
000000F0
000000F8
000000F8
000000F8
000000F8
000000F8
000000F8
000000F8
000000F8
000000F8
600000F8
F80000F8
FE0000F8
FF0000F8
FFC000F8
3FF000F8
0FFC00F8
03FF00F8
01FFC0F8
007FF0F8
001FFCF8
0007FFF8
0001FFF8
00007FF8
00001FF8
000007F8
000001F8
03E000F8
0FF000F8
0FF800F8
1FFC00F8
1FFC00F8
1FFC00F8
1FFC00F8
1FF800F8
0FF800F8
0FF000F8
03E000F8
000000F8
000000F8
000000F8
000000F8
000000F8
000000F8
000000F8
000000F8
000000F8
000000F8
000000F8
000000F0
ENDCHAR
STARTCHAR d
ENCODING 100
SWIDTH 704 0
DWIDTH 55 0
BBX 51 51 4 4
BITMAP
000000300001C0
000001F80003E0
0000038C0007E0
00000E0C000FE0
00001C08001FC0
00003018003F80
0000E030007F00
0001C03000FE00
0003806001FC00
000600C003F800
000C018007F000
000C03000FE000
001806001FC000
00300C003F8000
006018007F0000
00607000FE0000
00C0E001FC0000
00838003F80000
018F0007F00000
013C000FE00000
C3F0001FC00000
7F80003F800000
0300007F000000
060000FE000000
060001FC000000
060003F8000000
020007F0000000
03000FE0000000
00001FC0000000
00003F80000000
00007F00000000
0000FE00000000
0001FC00000000
0003F800000000
0007F000000000
000FE000000000
001FC000000000
003F8000000000
007F0000000000
00FE0000000000
01FC0000000000
03F80000000000
07F00000000000
0FE00000000000
1FC00000000000
3F800000000000
7F000000000000
FE000000000000
FC000000000000
78000000000000
30000000000000
ENDCHAR
STARTCHAR e
ENCODING 101
SWIDTH 704 0
DWIDTH 55 0
BBX 51 51 5 4
BITMAP
70000180000000
F80007F0000000
FC000638000000
FE00060E000000
7F000207000000
3F800301800000
1FC00180E00000
0FE00180700000
07F000C0380000
03F800600C0000
01FC0030060000
00FE0018070000
007F000C030000
003F8006018000
001FC00300C000
000FE001C0C000
0007F000E06000
0003F800382000
0001FC001E3000
0000FE00079000
00007F0000F860
00003F80003FC0
00001FC0001800
00000FE0000C00
000007F0000C00
000003F8000C00
000001FC000800
000000FE001800
0000007F000000
0000003F800000
0000001FC00000
0000000FE00000
00000007F00000
00000003F80000
00000001FC0000
00000000FE0000
000000007F0000
000000003F8000
000000001FC000
000000000FE000
0000000007F000
0000000003F800
0000000001FC00
0000000000FE00
00000000007F00
00000000003F80
00000000001FC0
00000000000FE0
000000000007E0
000000000003C0
00000000000180
ENDCHAR
STARTCHAR f
ENCODING 102
SWIDTH 824 0
DWIDTH 64 0
BBX 51 54 6 3
BITMAP
000001E0000000
000001F0000000
000003F0000000
000003F8000000
000003F8000000
000007FC000000
000007FC000000
00000FFE000000
00000FBE000000
00000FBF000000
00001F1F000000
00001F1F000000
00003E0F800000
00003E0F800000
00007C07C00000
00007C07C00000
0000F803E00000
0000F803E00000
0001F001F00000
0001F001F00000
0003E000F80000
0003E000F80000
0007C0007C0000
0007C0007C0000
000F80003E0000
000F80003E0000
001F00001F0000
001F00001F0000
003E00000F8000
003E00000F8000
007C000007C000
007C000007C000
00F8000007E000
00F8000003E000
01F0000003F000
01F0000001F000
03E0000001F000
03E0000000F800
07E0000000F800
07C00000007C00
0FC00000007C00
0F800000003E00
1F800000003E00
1F000000001F00
1F000000001F00
3E000000000F80
3E000000000F80
7C0000000007C0
7C0000000007C0
F80000000003E0
F80000000003E0
F00000000001E0
F00000000001E0
600000000000C0
ENDCHAR
STARTCHAR g
ENCODING 103
SWIDTH 653 0
DWIDTH 51 0
BBX 33 72 9 -13
BITMAP
000FF80000
007FFF0000
00FFFFC000
03F80FE000
07C001F000
0F8000F800
1F00003C00
1E00001E00
3C00001E00
7800000F00
7800000700
7000000780
F000000380
F000000380
E000000380
E000000380
E000000380
E000000380
E000000380
E000000380
E000000380
E000000380
E000000380
E000000380
E000000380
E000000380
E000000380
E000000380
E000000380
E000000380
E000000380
E000000380
E000000380
E000000380
E000000380
E000000380
E000000380
E000000380
E000000380
E000000380
E000000380
E000000380
E000000380
E000000380
E000000380
E000000380
E000000380
E000000380
E000000380
E000000380
E000000380
E000000380
E000000380
E000000380
E000000380
E000000380
E000000380
E000000380
E000000380
E000000380
E000000380
E000000380
E000000380
E000000380
E000000380
E000000380
E000000380
E000000380
E000000380
E000000380
E000000380
E000000380
ENDCHAR
STARTCHAR h
ENCODING 104
SWIDTH 543 0
DWIDTH 42 0
BBX 33 74 5 -14
BITMAP
0007F00000
003FFE0000
007FFF0000
00FC1FC000
01F007C000
03C001E000
078000F000
0700007000
0F00007800
0E00003800
0E00003800
1E00003C00
1E00003C00
1E00003C00
1E00003C00
0E00003800
0E00003800
0F00007800
0700007000
078000F000
03C001E000
03E003E000
01F80FC000
007FFF0000
003FFE0000
00FFFF8000
03FC1FE000
07E003F000
0F8000F800
1F00007C00
1E00003C00
3C00001E00
7800000F00
7800000F00
7000000700
F000000780
F000000380
E000000380
E000000380
E000000380
E000000380
E000000380
E000000380
E000000380
E000000380
E000000380
E000000380
E000000380
E000000380
E000000380
E000000380
E000000380
E000000380
E000000380
E000000380
E000000380
E000000380
E000000380
E000000380
E000000380
E000000380
E000000380
E000000380
E000000380
E000000380
E000000380
E000000380
E000000380
E000000380
E000000380
E000000380
E000000380
E000000380
E000000380
ENDCHAR
STARTCHAR i
ENCODING 105
SWIDTH 824 0
DWIDTH 64 0
BBX 50 51 6 2
BITMAP
000000000003C0
000000000007C0
00000000000FC0
00000000001FC0
00000000003F80
00000000007F00
0000000000FE00
0000000001FC00
0000000003F800
0000000007F000
000000000FE000
000000001FC000
000000003F8000
000000007F0000
00000000FE0000
00000001FC0000
00000003F80000
00000007F00000
0000000FE00000
0000001FC00000
0000003F800000
0000007F000000
000000FE000000
000001FC000000
000003F8000000
000007F8000000
00000FFC000000
00001FFE000000
00003FFF000000
00007FFF800000
0000FFFFC00000
0001FFFFE00000
0003FFFFF00000
0007FFFFF80000
000FEFFDFC0000
001FCFFCFE0000
003F9F3E7F0000
007F1F3E3F8000
00FE3F3E1FC000
01FC3E1F0FE000
03F83E1F07F000
07F07E1F03F800
0FE07C0F81FC00
1FC07C0F80FE00
3F80FC0FC07F00
7F00F807C03F80
FE00F807C01FC0
FC01F007E00FC0
F801F003E007C0
F001F003E00380
0001E001C00000
ENDCHAR
STARTCHAR j
ENCODING 106
SWIDTH 824 0
DWIDTH 64 0
BBX 51 51 7 2
BITMAP
000000F0000000
000001F0000000
000001F0000000
000001F0000000
000001F0000000
000001F0000000
000001F0000000
000001F0000000
000001F0000000
000001F0000000
000001F0000000
000001F0000000
000001F0000000
000001F0000000
000001F0000000
000001F0000000
000001F0000000
000001F0000000
000001F0000000
000001F0000000
000001F0000000
000001F0000000
000001F0000000
000001F0000000
000001F8000000
000003FC000000
000007FE000000
00000FFF000000
00001FFF800000
00003FFFC00000
00007FFFE00000
0000FFFFF00000
0001FFFFF80000
0003FFFFFC0000
0007FFFFFE0000
000FFFFFFF0000
001FFFFFBF8000
003FBFFFDFC000
007F7FF7CFE000
00FE7DF7E7F000
01FCFDF3E3F800
03F8F9F3F1FC00
07F1F9F1F0FE00
0FE3F1F1F87F00
1FC3E1F0F83F80
3F87E1F07C1FC0
7F07C1F07E0FE0
FE0FC1F03E07E0
7C0F81F03E03E0
780F81F01E01C0
000700F01E0000
ENDCHAR
STARTCHAR k
ENCODING 107
SWIDTH 824 0
DWIDTH 64 0
BBX 51 51 8 2
BITMAP
78000000000000
FC000000000000
FE000000000000
7F000000000000
3F800000000000
1FC00000000000
0FE00000000000
07F00000000000
03F80000000000
01FC0000000000
00FE0000000000
007F0000000000
003F8000000000
001FC000000000
000FE000000000
0007F000000000
0003F800000000
0001FC00000000
0000FE00000000
00007F00000000
00003F80000000
00001FC0000000
00000FE0000000
000007F0000000
000003F8000000
000003FC000000
000007FE000000
00000FFF000000
00001FFF800000
00003FFFC00000
00007FFFE00000
0000FFFFF00000
0001FFFFF80000
0003FFFFFC0000
0007FFFFFE0000
000FDFFFFF0000
001FBFFFBF8000
003F3FFFDFC000
007E7FF7CFE000
00FC7DF7E7F000
01F8FDF3E3F800
03F1F9F3F1FC00
07E1F1F1F0FE00
0FC3F1F1F87F00
1F83E1F0F83F80
3F07E1F0FC1FC0
7E07C1F07C0FE0
FC0FC1F03E07E0
F80F81F03E03E0
700F81F01E01C0
000700F01E0000
ENDCHAR
STARTCHAR l
ENCODING 108
SWIDTH 824 0
DWIDTH 64 0
BBX 51 52 6 1
BITMAP
00000000000080
000000000003C0
000000000007E0
00000000000FE0
00000000001FC0
00000000003F80
00000000007F00
0000000000FE00
0000000001FC00
0000000003F800
0000000007F000
000000000FE000
000000001FC000
000000003F8000
000000007F0000
00000000FE0000
00000001FC0000
00000003F80000
00000007F00000
0000000FE00000
0000001FC00000
0000003F800000
0000007F000000
000000FE000000
000001FC000000
000003F8000000
000007FC000000
00000FFE000000
00001FFF000000
00003FFF800000
00007FFFC00000
0000FFFFE00000
0001FFFFF00000
0003FFFFF80000
0007FFFFFC0000
000FFFFFFE0000
001FFFFFFF0000
003FBFFFBF8000
007F7FFFDFC000
00FE7DF7CFE000
01FCFDF7E7F000
03F8F9F3E3F800
07F1F9F3F1FC00
0FE1F1F1F0FE00
1FC3F1F1F87F00
3F83E1F0F83F80
7F07E1F0FC1FC0
FE07C1F07C0FE0
FC0FC1F07E07E0
F80F81F03E03E0
700F01F01E01C0
000700E01C0000
ENDCHAR
STARTCHAR m
ENCODING 109
SWIDTH 842 0
DWIDTH 66 0
BBX 53 52 7 1
BITMAP
00008000000000
0003E000000000
0003F000000000
0003F800000000
0001FE00000000
0000FF00000000
00007F80000000
00001FE0000000
00000FF0000000
000007F8000000
000001FC000000
000003FF000000
000007FF800000
00001FFFC00000
00003FCFE00000
00007F87F80000
0000FE03FC0000
0003FC00FE0000
0007F8007F8000
000FF0003FC000
003FC0001FE000
007F800007F000
00FF000003FC00
01FC000001FE00
07F8000000FF00
0FF0007E003FC0
1FE001FF801FE0
3F8007FFC00FF0
FF000781E003F8
FE000F00F001F8
F8001E007000F8
70001C00000070
00001C00000000
00001C00000000
0000383C000000
000038FF800000
00003BFFC00000
00003B83E00000
00003F00F00000
00003E00700000
00003C00700000
00003C00780000
00003C00780000
00003C00780000
00001C00780000
00001C00700000
00001E00700000
00000F00F00000
00000781E00000
000007FFC00000
000001FF800000
0000007E000000
ENDCHAR
STARTCHAR n
ENCODING 110
SWIDTH 842 0
DWIDTH 66 0
BBX 54 52 6 1
BITMAP
000000000C0000
000000001E0000
000000003F0000
00000000FF0000
00000001FE0000
00000003FC0000
0000000FF00000
0000001FE00000
0000003FC00000
0000007F000000
000001FE000000
000003FF000000
000007FF800000
00000FFFC00000
00003FCFF00000
00007F87F80000
0000FF03FC0000
0003FC00FE0000
0007F8007F8000
000FF0003FC000
001FC0001FE000
007F800007F800
00FF000003FC00
01FE000001FE00
03F80000007F00
0FF000FE003FC0
1FE003FF801FE0
3F8007FFC00FF0
7F000F83E003F8
FE000E00E001FC
FC001E00E000F8
70001C00400038
00003C00000000
00003800000000
0000383C000000
000039FF000000
00003BFFC00000
00003F83E00000
00003E01E00000
00003C00F00000
00003C00700000
00003C00700000
00003800700000
00003800700000
00003C00700000
00001C00700000
00001C00F00000
00000E00E00000
00000F03E00000
000007FFC00000
000003FF800000
000000FE000000
ENDCHAR
STARTCHAR o
ENCODING 111
SWIDTH 842 0
DWIDTH 66 0
BBX 53 51 7 2
BITMAP
0001C000000000
0003E000000000
0003F800000000
0003FC00000000
0001FE00000000
00007F00000000
00003FC0000000
00001FE0000000
00000FF0000000
000003FC000000
000003FE000000
000007FF000000
00000FFF800000
00001FDFE00000
00007F8FF00000
0000FF07F80000
0001FE01FE0000
0003F800FF0000
000FF0007F8000
001FE0003FC000
003FC0000FF000
00FF000007F800
01FE000003FC00
03FC000000FE00
07F00000007F80
1FE03FFFF03FC0
3FC03FFFF01FE0
7F803FFFF007F0
FE000000F003F8
FC000001E001F8
F8000001C00078
20000003C00030
00000003800000
00000007000000
00000007000000
0000000E000000
0000000E000000
0000001C000000
0000001C000000
0000003C000000
00000038000000
00000078000000
00000078000000
00000070000000
000000F0000000
000000F0000000
000000E0000000
000000E0000000
000001E0000000
000001E0000000
000001C0000000
ENDCHAR
STARTCHAR p
ENCODING 112
SWIDTH 842 0
DWIDTH 66 0
BBX 53 51 7 5
BITMAP
000000001E0000
000000003E0000
000000007F0000
00000000FE0000
00000003FC0000
00000007F80000
0000000FF00000
0000001FC00000
0000007F800000
000000FF000000
000001FE000000
000007FF000000
00000FFFC00000
00001FFFE00000
00003F8FF00000
0000FF03F80000
0001FE01FE0000
0003FC00FF0000
000FF0007F8000
001FE0001FE000
003FC0000FF000
007F800007F800
01FE000001FC00
03FC000000FF00
07F80000007F80
0FE03FFFF03FC0
3FC07FFFF00FF0
7F803FFFF007F8
FF000000E003F8
FC000001E001F8
78000001C00078
30000003800030
00000007800000
00000007000000
0000000F000000
0000000E000000
0000001E000000
0000001C000000
0000003C000000
00000038000000
00000038000000
00000078000000
00000070000000
00000070000000
000000F0000000
000000E0000000
000000E0000000
000001E0000000
000001E0000000
000001C0000000
000001C0000000
ENDCHAR
STARTCHAR q
ENCODING 113
SWIDTH 824 0
DWIDTH 64 0
BBX 51 51 7 7
BITMAP
000000000001C0
000000000003E0
000000000007E0
00000000000FC0
00000000001FC0
00000000003F80
00000000007F00
0000000000FE00
0000000001FC00
0000000003F800
0000000007F000
000000000FE000
000000001FC000
000000003F8000
000000007F0000
00000000FE0000
00000001FC0000
00000003F80000
00000007F00000
0000000FE00000
0000001FC00000
0000003F800000
0000007F000000
000000FE000000
000001FC000000
000003F8000000
000007FC000000
00000FFE000000
00001FFF000000
00003FBF800000
00007F1FC00000
0000FE0FE00000
0001FC07F00000
0003F803F80000
0007F001FC0000
000FE000FE0000
001FC0007F0000
003F80003F8000
007F00001FC000
00FE00000FE000
01FC000007F000
03F8000003F800
07F0000001FC00
0FE0000000FE00
1FC00000007F00
3F800000003F80
7F000000001FC0
FE000000000FE0
FC0000000007E0
780000000003C0
20000000000000
ENDCHAR
STARTCHAR r
ENCODING 114
SWIDTH 824 0
DWIDTH 64 0
BBX 51 55 7 4
BITMAP
00000000000080
000000000003C0
000000000007E0
00000000000FE0
00000000001FC0
00000000003F80
00000000007F00
0000000000FE00
0000000001FC00
0000000003F800
0000000007F000
000000000FE000
000000001FC000
000000003F8000
000000007F0000
00000000FE0000
00000001FC0000
00000003F80000
00000007F00000
0000000FE00000
0000001FC00000
0000003F800000
0000007F000000
000000FE000000
000001FC000000
000003F8000000
000007FC000000
00000FFE000000
00001FFF000000
00003FBF800000
00007F1FC00000
0000FE0FE00000
0001FC07F00000
0003F803F80000
0007F001FC0000
000FE000FE0000
001FC0007F0000
003F80003F8000
007F00001FC000
00FE00000FE000
01FC000007F000
03F8000003F800
07F0000001FC00
0FE0000000FE00
1FC00000007F00
3F800000003F80
7F000000001FC0
7E000000000FE0
FC0000000007E0
780000000003E0
700FFFFFFE01C0
001FFFFFFF0000
001FFFFFFF0000
001FFFFFFF0000
000FFFFFFE0000
ENDCHAR
STARTCHAR s
ENCODING 115
SWIDTH 531 0
DWIDTH 41 0
BBX 29 50 6 3
BITMAP
000000F0
000000F0
000000F8
000000F8
000000F8
000000F8
000000F8
000000F8
000000F8
000000F8
600000F8
F80000F8
FE0000F8
FF8000F8
FFC000F8
3FF000F8
0FFC00F8
03FF00F8
00FFC0F8
007FF0F8
001FFCF8
0007FFF8
0001FFF8
00007FF8
00001FF8
000007F8
000001F8
000000F8
000000F8
000000F8
000000F8
000000F8
000000F8
000000F8
000000F8
000000F8
000000F8
000000F8
000000F8
000000F8
000000F8
000000F8
000000F8
000000F8
000000F8
000000F8
000000F8
000000F8
000000F0
000000F0
ENDCHAR
STARTCHAR t
ENCODING 116
SWIDTH 841 0
DWIDTH 66 0
BBX 29 50 23 3
BITMAP
F0000000
F0000000
F0000000
F0000000
F0000000
F0000000
F0000000
F0000000
F0000000
F0000000
F0000060
F00001F0
F00007F8
F0000FF0
F0003FF0
F000FFC0
F003FF00
F00FFC00
F03FF800
F0FFE000
F3FF8000
FFFE0000
FFF80000
FFE00000
FF800000
FE000000
F8000000
F0000000
F0000000
F0000000
F0000000
F0000000
F0000000
F0000000
F0000000
F0000000
F0000000
F0000000
F0000000
F0000000
F0000000
F0000000
F0000000
F0000000
F0000000
F0000000
F0000000
F0000000
F0000000
F0000000
ENDCHAR
STARTCHAR u
ENCODING 117
SWIDTH 531 0
DWIDTH 41 0
BBX 5 53 19 2
BITMAP
60
F0
F8
F8
F8
F8
F8
F8
F8
F8
F8
F8
F8
F8
F8
F8
F8
F8
F8
F8
F8
F8
F8
F8
F8
F8
F8
F8
F8
F8
F8
F8
F8
F8
F8
F8
F8
F8
F8
F8
F8
F8
F8
F8
F8
F8
F8
F8
F8
F8
F8
F8
F0
ENDCHAR
STARTCHAR v
ENCODING 118
SWIDTH 911 0
DWIDTH 71 0
BBX 64 27 5 16
BITMAP
0000000000003800
000000000001FC00
E0000000000FFE00
FC000000003F8600
7F000000003C0700
0FE0000000000600
01FC000000003E00
007F80000001FC00
000FE000000FF000
0001FC00003F8000
00003F8001FC0000
00000FC00FE00000
000001C07F800000
00000001FC000000
0000000FE0000000
0000007F00000000
000003F803C00000
00000FE003F00000
00007F0000FE0000
0003F800001FC000
001FC0000007F000
007F00000000FE00
03F8000000001FC0
1FC00000000007F0
FE000000000000FE
F80000000000001F
C000000000000006
ENDCHAR
STARTCHAR w
ENCODING 119
SWIDTH 840 0
DWIDTH 66 0
BBX 53 5 6 26
BITMAP
7FFFFFFFFFFFF0
FFFFFFFFFFFFF8
FFFFFFFFFFFFF8
FFFFFFFFFFFFF8
7FFFFFFFFFFFF0
ENDCHAR
STARTCHAR x
ENCODING 120
SWIDTH 824 0
DWIDTH 64 0
BBX 50 50 7 3
BITMAP
F0000000000000
F8000000000000
FC000000000000
FE000000000000
7F000000000000
3F800000000000
1FC00000000000
0FE00000000000
07F00000000000
03F80000000000
01FC0000000000
00FE0000000000
007F0000000000
003F8000000000
001FC000000000
000FE000000000
0007F000000000
0003F800000000
0001FC00000000
0000FE00000000
00007F00000000
00003F80000000
00001FC0000000
00000FE0000000
000007F0000000
000003F8000000
000001FC000000
000000FE000000
0000007F000000
0000003F800000
0000001FC00000
0000000FE00000
00000007F00000
00000003F80000
00000001FC0000
00000000FE0000
000000007F0000
000000003F8000
000000001FC000
000000000FE000
0000000007F000
0000000003F800
0000000001FC00
0000000000FE00
00000000007F00
00000000003F80
00000000001FC0
00000000000FC0
000000000007C0
00000000000380
ENDCHAR
STARTCHAR y
ENCODING 121
SWIDTH 824 0
DWIDTH 64 0
BBX 51 50 8 3
BITMAP
000000000003C0
000000000007E0
00000000000FE0
00000000001FC0
00000000003F80
00000000007F00
0000000000FE00
0000000001FC00
0000000003F800
0000000007F000
000000000FE000
000000001FC000
000000003F8000
000000007F0000
00000000FE0000
00000001FC0000
00000003F80000
00000007F00000
0000000FE00000
0000001FC00000
0000003F800000
0000007F000000
000000FE000000
000001FC000000
000003F8000000
000007F0000000
00000FE0000000
00001FC0000000
00003F80000000
00007F00000000
0000FE00000000
0001FC00000000
0003F800000000
0007F000000000
000FE000000000
001FC000000000
003F8000000000
007F0000000000
00FE0000000000
01FC0000000000
03F80000000000
07F00000000000
0FE00000000000
1FC00000000000
3F800000000000
7F000000000000
7E000000000000
FC000000000000
F8000000000000
70000000000000
ENDCHAR
STARTCHAR z
ENCODING 122
SWIDTH 611 0
DWIDTH 48 0
BBX 44 73 2 -13
BITMAP
400000000020
E00000000070
F00000000070
7000000000F0
7000000000E0
7000000000E0
7800000000E0
3800000001E0
3800000001C0
3C00000001C0
1C00000003C0
1C0000000380
1C0000000380
1E0000000780
0E0000000700
0E0000000700
0F0000000700
070000000F00
070000000E00
078000000E00
038000001E00
038000001C00
038000001C00
03C000001C00
01C000003C00
01C000003800
01E000003800
00E000007800
00E000007000
00F000007000
00F00000F000
00700000E000
00700000E000
00780000E000
00380001E000
00380001C000
003C0001C000
001C0003C000
001C00038000
001C00038000
001E00078000
000E00078000
000E00070000
000F00070000
0007000F0000
0007000E0000
0007800E0000
0003801E0000
0003801C0000
0003801C0000
0003C01C0000
0001C03C0000
0001C0380000
0001E0380000
0000E0780000
0000E0700000
0000E0700000
0000F0F00000
000070F00000
000070E00000
000078E00000
000039E00000
000039C00000
00003DC00000
00001FC00000
00001F800000
00001F800000
00001F800000
00000F800000
00000F000000
00000F000000
000007000000
000006000000
ENDCHAR
STARTCHAR braceleft
ENCODING 123
SWIDTH 611 0
DWIDTH 48 0
BBX 44 72 2 -12
BITMAP
600000000070
E00000000070
F00000000070
7000000000F0
7000000000E0
7800000000E0
3800000001E0
3800000001C0
3800000001C0
3C00000001C0
1C00000003C0
1C0000000380
1E0000000380
0E0000000780
0E0000000700
0E0000000700
0F0000000F00
070000000E00
070000000E00
078000000E00
038000001E00
038000001C00
03C000001C00
01C000003C00
7FFFFFFFFFF0
FFFFFFFFFFF0
FFFFFFFFFFF0
00E000007800
00E000007000
00F000007000
00700000F000
00700000E000
00780000E000
00780001E000
00380001C000
00380001C000
003C0001C000
001C0003C000
001C00038000
001E00038000
000E00078000
000E00070000
000E00070000
000F000F0000
0007000F0000
0007000E0000
0007800E0000
0003801E0000
0003801C0000
0003C01C0000
0003C03C0000
0001C0380000
0001C0380000
0001E0380000
0000E0780000
0000E0700000
0000F0700000
000070F00000
000070E00000
000070E00000
000079E00000
000039E00000
000039C00000
00003DC00000
00001FC00000
00001F800000
00001F800000
00001F800000
00000F000000
00000F000000
00000F000000
000007000000
ENDCHAR
STARTCHAR bar
ENCODING 124
SWIDTH 824 0
DWIDTH 64 0
BBX 51 51 7 0
BITMAP
000007FE000000
00007FFFC00000
0001FFFFF80000
0007FFFFFE0000
001FFFFFFF0000
003FF801FF8000
007FC0003FE000
00FF00000FF000
01FC000007F800
03F8000001F800
07F0000000FC00
07E00000007E00
0FC00000003F00
1F800000003F00
1F000000001F80
3F000000000F80
3E000000000F80
3E0000000007C0
7C0000000007C0
7C0000000007C0
7C0000000003E0
7C0000000003E0
7C0000000003E0
780000000003E0
F80000000003E0
F80000000003E0
F80000000003E0
780000000003E0
7C0000000003E0
7C0000000003E0
7C0000000003E0
7C0000000007C0
7E0000000007C0
3E0000000007C0
3E000000000F80
1F000000000F80
1F800000001F00
1F800000003F00
0FC00000003E00
07E00000007E00
07F0000000FC00
03F8000001F800
01FC000007F000
00FF00000FF000
007FC0007FE000
003FF803FF8000
000FFFFFFF0000
0007FFFFFC0000
0001FFFFF00000
00003FFFC00000
000003FC000000
ENDCHAR
STARTCHAR uni007F
ENCODING 127
SWIDTH 956 0
DWIDTH 75 0
BBX 57 26 8 20
BITMAP
00000FFFF0000000
0001FFFFFF800000
000FFFFFFFF80000
007FFFFFFFFF0000
01FFFFFFFFFFC000
07FFFFFFFFFFE000
0FFFFFFFFFFFF800
1FFFFFFFFFFFFC00
3FFFFFFFFFFFFE00
7FFFFFFFFFFFFE00
7FFFFFFFFFFFFF00
FFFFFFFFFFFFFF00
FFFFFFFFFFFFFF80
FFFFFFFFFFFFFF80
FFFFFFFFFFFFFF00
7FFFFFFFFFFFFF00
7FFFFFFFFFFFFF00
3FFFFFFFFFFFFE00
1FFFFFFFFFFFFC00
0FFFFFFFFFFFF800
07FFFFFFFFFFF000
01FFFFFFFFFFC000
007FFFFFFFFF0000
001FFFFFFFF80000
0003FFFFFFC00000
00000FFFF8000000
ENDCHAR
STARTCHAR crossleft
ENCODING 128
SWIDTH 855 0
DWIDTH 67 0
BBX 64 26 2 16
BITMAP
0000000000000006
E00000000000003E
FC000000000001FC
7F00000000000FE0
0FE0000000003F80
01FC00000001FC00
007F0000000FF000
000FE000003F8000
0001FC0001FC0000
00007F0003E00000
00000FE003800000
000001FC00000000
0000003F80000000
0000000FE0000000
00000001FC000000
000001803F800000
00000FC00FE00000
00003F8001FC0000
0001FC00003F8000
000FE0000007F000
003F80000001FC00
01FC000000003F80
0FE00000000007F0
3F000000000001FC
FC0000000000003F
E000000000000007
ENDCHAR
STARTCHAR crossleft_purl
ENCODING 129
SWIDTH 866 0
DWIDTH 68 0
BBX 64 24 3 17
BITMAP
F00000000000001C
FC0000000000007C
3F800000000003F8
07F0000000001FC0
00FE000000007F00
003F80000003F800
0007F000001FC000
0000FE00007F0000
00001FC003F80000
000007F00FC00000
000000FE0E000000
0000001FC0000000
00000003F8000000
00000000FE000000
000003801FC00000
00001F8003F80000
0000FE00007F0000
0007F800001FC000
001FC0000003F800
00FE000000007F00
07F0000000000FE0
3F800000000003FC
FE07FFF80000007F
F007FFF80000000F
ENDCHAR
STARTCHAR crossright
ENCODING 130
SWIDTH 912 0
DWIDTH 71 0
BBX 64 25 4 17
BITMAP
0000000000000003
380000000000001F
3F000000000000FE
0FC00000000003F8
03F8000000001FC0
007F00000000FE00
001FC0000007F000
0003F800001FC000
00007F0000FE0000
00001FC007F00000
000003E01FC00000
000000E0FE000000
00000007F0000000
0000003F80000000
000000FE00000000
000007F003C00000
00003F8003F80000
0000FC0000FF0000
0007F000001FE000
003F80000003F800
01FC000000007F00
07F0000000000FE0
3F800000000001FC
FC0000000000007F
E00000000000000F
ENDCHAR
STARTCHAR dip_purl
ENCODING 131
SWIDTH 653 0
DWIDTH 51 0
BBX 33 73 9 -14
BITMAP
000FF80000
007FFF0000
00FFFFC000
03F80FE000
07C001F000
0F8000F800
1F00003C00
1E00001E00
3C00001E00
7800000F00
7800000700
7000000780
F000000380
F000000380
E000000380
E000000380
E000000380
E000000380
E000000380
E000000380
E000000380
E000000380
E000000380
E000000380
E000000380
E000000380
E000000380
E000000380
E000000380
E000000380
E000000380
E000000380
E000000380
E000000380
E000000380
E000000380
E000000380
E000000380
E000000380
E000000380
E000000380
E000000380
E000000380
E000000380
E000000380
E000000380
E000000380
E000000380
E000000380
E000000380
E000000380
E000000380
E000000380
E000000380
E000000380
E000000380
E000000380
E000000380
E000000380
E000000380
E000000380
E000000380
E000000380
E000000380
E000000380
E000000380
E000000380
E000000380
E000000380
E000000380
E1FFFFC380
E1FFFFC380
01FFFFC000
ENDCHAR
STARTCHAR crossright_purl
ENCODING 132
SWIDTH 935 0
DWIDTH 73 0
BBX 64 25 5 24
BITMAP
0000000000000003
F00000000000000F
FE0000000000007F
3FC00000000003F8
07F0000000001FC0
00FE000000007F00
001FC0000003F800
0003F800001FC000
0000FE00007F0000
00001FC003F80000
000003C01FC00000
00000000FE000000
00000003F8000000
0000001FC0000000
000000FE01800000
000003F803F00000
00001FC000FC0000
0000FE00003F8000
0007F8000007F000
001FC0000001FC00
00FE000000003F80
07F00000000007F0
3FC00000000001FC
FE0000001FFFE03F
F00000003FFFE00F
ENDCHAR
STARTCHAR c2over1left
ENCODING 133
SWIDTH 942 0
DWIDTH 73 0
BBX 68 17 3 24
BITMAP
800000002000000010
E000000038000001F0
380000001E00001FC0
0F000000078003F800
03C0000000F01F8000
00F00000003C180000
003C0000000F000000
000F00000003C00000
0001E0000000F00000
0000780000001E0000
00001E000000078000
00000780000001E000
000781E00000007800
007F003C0000001E00
0FF0000F0000000380
FE000003C0000000F0
E0000000C000000030
ENDCHAR
STARTCHAR c2over1left_purl
ENCODING 134
SWIDTH 941 0
DWIDTH 73 0
BBX 69 17 3 28
BITMAP
C000000038000000F8
F00000001E00000FE0
3E000000078001FE00
0780000000F00FC000
01E00000003C0C0000
00780000000F000000
001E00000003C00000
0003C0000000F00000
0000F00000001E0000
00003C000000078000
00000F00000001E000
000003C00000007800
000F80780000001E00
01FE001E00000003C0
1FC0000780000000F0
FC07FF01E000000038
8003FF000000000000
ENDCHAR
STARTCHAR c2over1right
ENCODING 135
SWIDTH 941 0
DWIDTH 73 0
BBX 69 18 3 25
BITMAP
000000000000000008
F0000000C000000038
7F00000780000001E0
07F8001E0000000780
003F80780000001E00
000381E00000007800
00000780000001E000
00001C000000070000
0000F00000003C0000
0003C0000000F00000
000F00000003C00000
003C0000000F000000
00F00000003C0E0000
0780000001E00FF000
1E000000078000FF00
780000001E000007F0
E00000003800000078
800000000000000000
ENDCHAR
STARTCHAR c2over1right_purl
ENCODING 136
SWIDTH 915 0
DWIDTH 71 0
BBX 68 18 2 24
BITMAP
800000004000000000
FC000001C000000030
1FC0000780000000F0
01FE003C0000000380
000F80F00000001E00
000003C00000007800
00000F00000001E000
00003C000000078000
0000E00000001E0000
000780000000700000
001E00000003C00000
00780000000F000000
01E00000003C100000
0780000000F01F8000
1C00000003C003F800
F00000001E00003FC0
C0000000380FFE03F0
000000002007FE0010
ENDCHAR
STARTCHAR uni0089
ENCODING 137
SWIDTH 957 0
DWIDTH 75 0
BBX 71 13 2 28
BITMAP
000000000000020002
C000007000003E003E
7C00001F0001E003E0
07C00001F00F003E00
007E00001F0001E000
0007E00001F00F0000
00007E00001F000000
000007E00001F00000
0000E03E00001F0000
001F8003E00001F000
01F001E03E00001F80
1F001F0003E00001F8
F000F000003800001E
ENDCHAR
STARTCHAR c2over2left_purl
ENCODING 138
SWIDTH 959 0
DWIDTH 75 0
BBX 71 12 2 27
BITMAP
E000007800000E000E
3E00000F8001F800F8
03E00000F80F001F00
003E00000F8001F000
0003E00000F80F0000
00003E00000F800000
000063E00001F80000
0007C03E00000F8000
007C0063E00001F800
03C007C03E00001F80
3E003C0003E00001F0
E0FEE0FE003800001E
ENDCHAR
STARTCHAR c2over2right_purl
ENCODING 140
SWIDTH 956 0
DWIDTH 75 0
BBX 71 13 2 26
BITMAP
C001C000001800000E
7C007C0001F0000078
07C007801F000007C0
00F800E0F000007C00
000F800F800007C000
0000E0F800003C0000
00000F800003E00000
00007800003E0E0000
0007C00003E007C000
007C00001E0C007C00
07C00001F007C007C0
7C00001F00007C0078
C000007000FE0EFE0E
ENDCHAR
STARTCHAR decrease3to1centered
ENCODING 141
SWIDTH 824 0
DWIDTH 64 0
BBX 50 51 7 2
BITMAP
000001E0000000
000001E0000000
000001E0000000
000001E0000000
000001E0000000
000001E0000000
000001E0000000
000001E0000000
000001E0000000
000001E0000000
000001E0000000
000001E0000000
000001E0000000
000001E0000000
000001E0000000
000001E0000000
000001E0000000
000001E0000000
000001E0000000
000001E0000000
000001E0000000
000001E0000000
000001E0000000
000001E0000000
000003F0000000
000007F8000000
00000FFC000000
00001FFE000000
00003FFF000000
00007FFF800000
0000FFFFC00000
0001FDEFE00000
0003F9E7F00000
0007F1E3F80000
000FE1E1FC0000
001FC1E0FE0000
003F81E07F0000
007F01E03F8000
00FE01E01FC000
01FC01E00FE000
03F801E007F000
07F001E003F800
0FE001E001FC00
1FC001E000FE00
3F8001E0007F00
7F0001E0003F80
FE0001E0001FC0
FC0001E0000FC0
F80001E00007C0
700001E0000380
000001E0000000
ENDCHAR
STARTCHAR decrease3to1left
ENCODING 142
SWIDTH 824 0
DWIDTH 64 0
BBX 50 51 9 2
BITMAP
F0000000000000
F8000000000000
FC000000000000
FE000000000000
7F000000000000
3F800000000000
1FC00000000000
0FE00000000000
07F00000000000
03F80000000000
01FC0000000000
00FE0000000000
007F0000000000
003F8000000000
001FC000000000
000FE000000000
0007F000000000
0003F800000000
0001FC00000000
0000FE00000000
00007F00000000
00003F80000000
00001FC0000000
00000FE0000000
000007F0000000
000007F8000000
00000FFC000000
00001FFE000000
00003FFF000000
00007FFF800000
0000FFFFC00000
0001FDEFE00000
0003F9E7F00000
0007F1E3F80000
000FE1E1FC0000
001FC1E0FE0000
003F81E07F0000
007F01E03F8000
00FE01E01FC000
01FC01E00FE000
03F801E007F000
07F001E003F800
0FE001E001FC00
1FC001E000FE00
3F8001E0007F00
7F0001E0003F80
FE0001E0001FC0
FC0001E0000FC0
F80001E00007C0
F00001E0000380
000001E0000000
ENDCHAR
STARTCHAR decrease3to1right
ENCODING 143
SWIDTH 824 0
DWIDTH 64 0
BBX 50 51 7 2
BITMAP
000000000003C0
000000000007C0
00000000000FC0
00000000001FC0
00000000003F80
00000000007F00
0000000000FE00
0000000001FC00
0000000003F800
0000000007F000
000000000FE000
000000001FC000
000000003F8000
000000007F0000
00000000FE0000
00000001FC0000
00000003F80000
00000007F00000
0000000FE00000
0000001FC00000
0000003F800000
0000007F000000
000000FE000000
000001FC000000
000003F8000000
000007F8000000
00000FFC000000
00001FFE000000
00003FFF000000
00007FFF800000
0000FFFFC00000
0001FDEFE00000
0003F9E7F00000
0007F1E3F80000
000FE1E1FC0000
001FC1E0FE0000
003F81E07F0000
007F01E03F8000
00FE01E01FC000
01FC01E00FE000
03F801E007F000
07F001E003F800
0FE001E001FC00
1FC001E000FE00
3F8001E0007F00
7F0001E0003F80
FE0001E0001FC0
FC0001E0000FC0
F80001E00007C0
F00001E0000380
000001E0000000
ENDCHAR
STARTCHAR decrease4to1left
ENCODING 144
SWIDTH 824 0
DWIDTH 64 0
BBX 51 51 9 2
BITMAP
78000000000000
FC000000000000
FE000000000000
7F000000000000
3F800000000000
1FC00000000000
0FE00000000000
07F00000000000
03F80000000000
01FC0000000000
00FE0000000000
007F0000000000
003F8000000000
001FC000000000
000FE000000000
0007F000000000
0003F800000000
0001FC00000000
0000FE00000000
00007F00000000
00003F80000000
00001FC0000000
00000FE0000000
000007F0000000
000003F8000000
000007FC000000
00000FFE000000
00001FFF000000
00003FFF800000
00007FFFC00000
0000FFFFE00000
0001FFFFF00000
0003FFFFF80000
0007F7FDFC0000
000FEFFEFE0000
001FCFBE7F0000
003F8FBE3F8000
007F1FBF1FC000
00FE1F1F0FE000
01FC1F1F07F000
03F83F0F83F800
07F03E0F81FC00
0FE03E0F80FE00
1FC07C07C07F00
3F807C07C03F80
7F007C07C01FC0
7E00F803E00FC0
FC00F803E007E0
F800F803E003E0
7000F001F001C0
0000F001E00000
ENDCHAR
STARTCHAR decreaseleft2w
ENCODING 154
SWIDTH 911 0
DWIDTH 71 0
BBX 63 25 5 20
BITMAP
F000000000000000
FC00000000000000
3F80000000000000
07F0000000000000
01FC000000000000
003F800000000000
0007F00000000000
0001FC0000000000
00003F8000000000
000007F000000000
000001FE00000000
0000003F80000000
0000000FF0000000
0000003FFE000000
000001FC3F800000
00000FE007F00000
00007F0000FE0000
0001FC00003FC000
000FE0000007F000
007F00000000FE00
01FC000000001FC0
0FE00000000007F0
94F3FA0694F3FA06
94F3FA0694F3FA06
94F3FA0694F3FA06
ENDCHAR
STARTCHAR twistleft_purl
ENCODING 174
SWIDTH 911 0
DWIDTH 71 0
BBX 64 29 5 14
BITMAP
01F0000000000000
0FFFC0000000000F
1FFFF8000000003F
3C01FF00000001FC
18001FE000000FE0
1C0001FC00003F80
0E00003F0001FC00
0F00000FC007E000
07800003E03F8000
03E00000F8FC0000
00F000003E700000
007C00000F000000
001F000007800000
0007E00003C00200
0001F80000F00700
00007F0000780E00
00001FE0003C3C00
000063FF001EF800
0001E07FFFFFF000
000FE003FFFFC000
007F000001C78000
03F800000001C000
1FE000000000C000
7F0000000000E000
F807FFF80000E000
C007FFF80000E000
000000000000E000
000000000000E000
0000000000004000
ENDCHAR
STARTCHAR twistleft
ENCODING 175
SWIDTH 911 0
DWIDTH 71 0
BBX 64 28 5 17
BITMAP
0FFC000000000000
1FFFC00000000007
7C3FF8000000001F
7000FF00000000FE
70000FE0000007F0
780001F800001F80
7C00007E0000FE00
3E00000F8007F000
1F000003E01FC000
0FC00000F07E0000
07F000007CF00000
01FC00001E400000
007F00000F000000
000FC00003C00C00
0003F80001E01C00
00007F0000F03800
00001FF00078F000
0000007FF9FFE000
0001E000FFFF8000
0007E00000FE0000
003F8000000F0000
01FC000000038000
0FE0000000038000
3F80000000018000
FC00000000018000
E000000000018000
000000000001C000
0000000000018000
ENDCHAR
STARTCHAR degree
ENCODING 176
SWIDTH 823 0
DWIDTH 64 0
BBX 51 55 7 1
BITMAP
000001F0000000
00000FFE000000
00003FFF800000
00007FFFC00000
0000FFFFE00000
0000FE0FE00000
0001FC03F00000
0001F001F00000
0003F001F80000
0003E000F80000
0007E000FC0000
0007C0007C0000
0007C0007C0000
000F80003E0000
000F80003E0000
000F80003E0000
000F80003E0000
000F80003E0000
000F80003E0000
000F00001E0000
000F00001E0000
000F00001E0000
000F00001E0000
000F80003E0000
000F80003E0000
000F80003E0000
000F80003E0000
000F80003E0000
0007C0007C0000
0007C0007C0000
0007E000FC0000
0003E000F80000
0003F001F80000
0001F803F00000
0001F803F00000
0000FC07E00000
00007F1FC00000
00003FBF800000
70001FFF8001C0
F8000FFE0003E0
FC0007FC0007E0
7E0007FC000FC0
7F803FFF803FC0
3FFFFFFFFFFF80
1FFFFFFFFFFF00
07FFFF5FFFFC00
01FFFC07FFF000
003FC0007F8000
00000000000000
00000000000000
000FFFFFFE0000
001FFFFFFF0000
001FFFFFFF0000
001FFFFFFF0000
000FFFFFFE0000
ENDCHAR
STARTCHAR uni00B2
ENCODING 178
SWIDTH 911 0
DWIDTH 71 0
BBX 64 28 3 16
BITMAP
00000000000001F0
0000000000007FFC
E00000000007FFFE
FC000000003FE00F
7F00000001FE0007
0FE0000007F00007
01FC00001F80000E
007F00007E00001C
000FE001F0000038
0003F803C00000F0
00007E0F800003E0
00000E1E00000F80
0000007800003E00
000800F00000F800
001C01E00007E000
000E03C0003F8000
0007870003FC0000
0003FF03FFE00000
0000FFFFFF060000
00003FFFC00FC000
000078000003F800
000070000000FE00
0000E00000001FC0
0000E000000003F8
0000C0000000007F
0000C0000000001F
0000C00000000003
0000C00000000000
ENDCHAR
STARTCHAR uni00B3
ENCODING 179
SWIDTH 705 0
DWIDTH 55 0
BBX 32 51 10 5
BITMAP
0003E000
001FFC00
007FFE00
00FFFF00
01FFFF80
03FC1FC0
03F00FE0
07E007E0
07C003F0
0FC001F0
0F8001F0
0F8000F8
1F0000F8
1F0000F8
1F0000F8
1F00007C
1E00007C
3E00007C
3E00007C
3E00007C
3E00007C
3E00007C
3E00007C
3E00007C
3E00007C
1F00007C
1F00007C
1F0000F8
1F0000F8
0F8000F8
0F8001F0
07C001F0
07C003F0
07E007E0
03F007C0
03F00FC0
01F81F80
00FC3F00
00FE7E00
007FFE00
003FFC00
001FF800
000FF000
001FF800
007FFF00
07FFFFE0
7FFFFFFE
FFFC3FFF
FFF00FFF
FFC001FF
7800001E
ENDCHAR
STARTCHAR Edieresis
ENCODING 203
SWIDTH 824 0
DWIDTH 64 0
BBX 52 51 7 1
BITMAP
20000000000040
F00000000001E0
F80000000003F0
FC0000000007F0
FE000000000FE0
7F000000001FC0
3F800000003F80
1FC00000007F00
0FE0000000FE00
07F0000001FC00
03F8000003F800
01FC000007F000
00FE00000FE000
007F00001FC000
003F80003F8000
001FC0007F0000
000FE000FE0000
0007F001FC0000
0003F803F80000
0001FC07F00000
0000FE0FE00000
00007F1FC00000
00003FBF800000
00001FFF000000
00000FFE000000
000007FC000000
000003F8000000
000007FC000000
00000FFE000000
00001FFF000000
00003FBF800000
00007F1FC00000
0000FE0FE00000
0001FC07F00000
0003F803F80000
0007F001FC0000
000FE000FE0000
001FC0007F0000
003F80003F8000
007F00001FC000
00FE00000FE000
01FC000007F000
03F8000003F800
07F0000001FC00
0FE0000000FE00
1FC00000007F00
3F800000003F80
7F000000001FC0
7E000000000FC0
7C0000000007C0
38000000000380
ENDCHAR
STARTCHAR Igrave
ENCODING 204
SWIDTH 611 0
DWIDTH 48 0
BBX 44 72 2 -13
BITMAP
E00000000070
F00000000070
F000000000F0
7000000000E0
7000000000E0
7800000000E0
3800000001E0
3800000001C0
3C00000001C0
1C00000003C0
1C0006000380
1C003FC00380
1E00FFF00780
0E01FFF80700
0E03FFFC0700
0F03FFFC0700
0707FFFE0F00
0707FFFE0E00
0787FFFE0E00
0387FFFE1E00
0387FFFE1C00
0387FFFE1C00
03C7FFFE1C00
01C3FFFE3C00
01C3FFFC3800
01E1FFF83800
00E0FFF87800
00E07FE07000
00E01F807000
00F00000F000
00700000E000
00700000E000
00780000E000
00380001E000
00380001C000
003C0001C000
001C0003C000
001C00038000
001C00038000
001E00038000
000E00078000
000E00070000
000F00070000
0007000F0000
0007000E0000
0007800E0000
0007801E0000
0003801C0000
0003801C0000
0003C01C0000
0001C03C0000
0001C0380000
0001E0380000
0000E0780000
0000E0700000
0000E0700000
0000F0700000
000070F00000
000070E00000
000078E00000
000039E00000
000039C00000
00003DC00000
00003FC00000
00001F800000
00001F800000
00001F800000
00000F800000
00000F000000
00000F000000
000007000000
000006000000
ENDCHAR
STARTCHAR Iacute
ENCODING 205
SWIDTH 611 0
DWIDTH 48 0
BBX 18 19 15 12
BITMAP
00C000
07F800
1FFE00
3FFF00
7FFF80
7FFF80
FFFFC0
FFFFC0
FFFFC0
FFFFC0
FFFFC0
FFFFC0
FFFFC0
7FFFC0
7FFF80
3FFF00
1FFF00
0FFC00
03F000
ENDCHAR
STARTCHAR Icircumflex
ENCODING 206
SWIDTH 611 0
DWIDTH 48 0
BBX 34 72 7 -13
BITMAP
000FFC0000
003FFF0000
00FFFFC000
01F807F000
07E001F800
0780007C00
0F00003C00
1E00001E00
3C00000F00
3C00000700
7800000780
7800000380
7000000380
70000003C0
70000003C0
F0000001C0
F0000001C0
F0000001C0
F0000001C0
F0000001C0
F0000001C0
F0000001C0
F0000001C0
F0000001C0
F0000001C0
F0000001C0
F0000001C0
F0000001C0
F0004001C0
F007FC01C0
F01FFE01C0
F03FFF01C0
F03FFF81C0
F07FFFC1C0
F07FFFC1C0
F0FFFFC1C0
F0FFFFC1C0
F0FFFFE1C0
F0FFFFE1C0
F0FFFFC1C0
F0FFFFC1C0
F07FFFC1C0
F07FFF81C0
F03FFF81C0
F01FFF01C0
F00FFC01C0
F003F001C0
F0000001C0
F0000001C0
F0000001C0
F0000001C0
F0000001C0
F0000001C0
F0000001C0
F0000001C0
F0000001C0
F0000001C0
F0000001C0
F0000001C0
F0000001C0
F0000001C0
F0000001C0
F0000001C0
F0000001C0
F0000001C0
F0000001C0
F0000001C0
F0000001C0
F0000001C0
F0000001C0
F0000001C0
6000000180
ENDCHAR
STARTCHAR Idieresis
ENCODING 207
SWIDTH 694 0
DWIDTH 54 0
BBX 40 53 7 1
BITMAP
00007F8000
0003FFF000
0007FFFC00
001FFFFE00
003FC0FF00
007F003F80
00FC000FC0
01F80007E0
03F00003F0
03E00001F0
07C00001F8
07C00000F8
0F800000F8
0F8000007C
0F8000007C
1F0000007C
1F0000007C
1F0000007C
1F0000007C
1F0000007C
1F8000007C
0F8000007C
0F800000F8
0F800000F8
0FC00001F8
07C00001F0
07E00003F0
03F00003E0
03F00007C0
01F8000FC0
00FC000F80
007E001F00
007F003E00
003F807E00
001FC0FC00
000FE3F800
0003FFE000
0001FFC000
0000FF8000
00007F8000
0000FFC000
0001FFF000
0007F3F800
000FC1FE00
003F807F00
007E003FC0
01FC000FE0
03F00007F0
07C00001FC
1F0000007E
3C0000003F
7000000007
C000000000
ENDCHAR
STARTCHAR Eth
ENCODING 208
SWIDTH 694 0
DWIDTH 54 0
BBX 40 53 7 1
BITMAP
00007F8000
0003FFF000
0007FFFC00
001FFFFE00
003FC0FF00
007F003F80
00FC000FC0
01F80007E0
03F00003F0
03E00001F0
07C00001F8
07C00000F8
0F801E00F8
0F807F807C
0F80FFC07C
1F00FFC07C
1F00FFE07C
1F01FFE07C
1F00FFE07C
1F00FFC07C
1F80FFC07C
0F807F8078
0F803F00F8
0F800000F8
0FC00001F0
07C00001F0
07E00003E0
03F00003E0
01F00007C0
01F8000FC0
00FC001F80
007E001F00
003F003E00
001F807C00
001FC1FC00
0007F3F000
0003FFE000
0001FFC000
0000FF8000
00007F8000
0000FFC000
0003FFF000
0007F3F800
001FC1FE00
003F807F00
007E003FC0
01F8000FE0
03F00007F8
07C00001FC
1F0000007E
3C0000001F
7000000007
C000000000
ENDCHAR
STARTCHAR Ntilde
ENCODING 209
SWIDTH 956 0
DWIDTH 75 0
BBX 71 12 2 29
BITMAP
7000F000000C000006
1F001F0000F800007C
01F001F00F800007C0
001F0011F800007C00
0001F01F000007C000
000001F000007C0000
00001F000007C00000
0001F000007C0F8000
001F000007C000F800
01F00000FC0F800F80
1F00000FC000F800F8
F000003800000F000E
ENDCHAR
STARTCHAR Ograve
ENCODING 210
SWIDTH 824 0
DWIDTH 64 0
BBX 50 51 9 7
BITMAP
70000000000000
F8000000000000
FC000000000000
FE000000000000
7F000000000000
3F800000000000
1FC00000000000
0FE00000000000
07F00000000000
03F80000000000
01FC0000000000
00FE0000000000
007F0000000000
003F8000000000
001FC000000000
000FE000000000
0007F000000000
0003F800000000
0001FC00000000
0000FE00000000
00007F00000000
00003F80000000
00001FC0000000
00000FE0000000
000007F0000000
000007F8000000
00000FFC000000
00001FFE000000
00003FFF000000
00007F3F800000
0000FE1FC00000
0001FC0FE00000
0003F807F00000
0007F003F80000
000FE001FC0000
001FC000FE0000
003F80007F0000
007F00003F8000
00FE00001FC000
01FC00000FE000
03F8000007F000
07F0000003F800
0FE0000001FC00
1FC0000000FE00
3F800000007F00
7F000000003F80
7E000000001FC0
FC000000000FC0
F80000000007C0
F00000000003C0
20000000000000
ENDCHAR
STARTCHAR Oacute
ENCODING 211
SWIDTH 824 0
DWIDTH 64 0
BBX 50 55 9 3
BITMAP
60000000000000
F8000000000000
FC000000000000
FE000000000000
7F000000000000
3F800000000000
1FC00000000000
0FE00000000000
07F00000000000
03F80000000000
01FC0000000000
00FE0000000000
007F0000000000
003F8000000000
001FC000000000
000FE000000000
0007F000000000
0003F800000000
0001FC00000000
0000FE00000000
00007F00000000
00003F80000000
00001FC0000000
00000FE0000000
000007F0000000
000003F8000000
000007FC000000
00000FFE000000
00001FFF000000
00003FBF800000
00007F1FC00000
0000FE0FE00000
0001FC07F00000
0003F803F80000
0007F001FC0000
000FE000FE0000
001FC0007F0000
003F80003F8000
007F00001FC000
00FE00000FE000
01FC000007F000
03F8000003F800
07F0000001FC00
0FE0000000FE00
1FC00000007F00
3F800000003F80
7F000000001FC0
FE000000000FC0
FC0000000007C0
F80000000003C0
700FFFFFFE0180
001FFFFFFE0000
001FFFFFFF0000
001FFFFFFE0000
000FFFFFFC0000
ENDCHAR
STARTCHAR Ocircumflex
ENCODING 212
SWIDTH 991 0
DWIDTH 77 0
BBX 76 59 1 2
BITMAP
FFFFFFFFFFFFFFFFFFF0
FFFFFFFFFFFFFFFFFFF0
FFFFFFFFFFFFFFFFFFF0
FFFFFFFFFFFFFFFFFFF0
FFFFFFFFFFFFFFFFFFF0
FFFFFFFFFFFFFFFFFFF0
FFFFFFFFFFFFFFFFFFF0
FFFFFFFFFFFFFFFFFFF0
FFFFFFFFFFFFFFFFFFF0
FFFFFFFFFFFFFFFFFFF0
FFFFFFFFFFFFFFFFFFF0
FFFFFFFFFFFFFFFFFFF0
FFFFFFFFFFFFFFFFFFF0
FFFFFFFFFFFFFFFFFFF0
FFFFFFFFFFFFFFFFFFF0
FFFFFFFFFFFFFFFFFFF0
FFFFFFFFFFFFFFFFFFF0
FFFFFFFFFFFFFFFFFFF0
FFFFFFFFFFFFFFFFFFF0
FFFFFFFFFFFFFFFFFFF0
FFFFFFFFFFFFFFFFFFF0
FFFFFFFFFFFFFFFFFFF0
FFFFFFFFFFFFFFFFFFF0
FFFFFFFFFFFFFFFFFFF0
FFFFFFFFFFFFFFFFFFF0
FFFFFFFFFFFFFFFFFFF0
FFFFFFFFFFFFFFFFFFF0
FFFFFFFFFFFFFFFFFFF0
FFFFFFFFFFFFFFFFFFF0
FFFFFFFFFFFFFFFFFFF0
FFFFFFFFFFFFFFFFFFF0
FFFFFFFFFFFFFFFFFFF0
FFFFFFFFFFFFFFFFFFF0
FFFFFFFFFFFFFFFFFFF0
FFFFFFFFFFFFFFFFFFF0
FFFFFFFFFFFFFFFFFFF0
FFFFFFFFFFFFFFFFFFF0
FFFFFFFFFFFFFFFFFFF0
FFFFFFFFFFFFFFFFFFF0
FFFFFFFFFFFFFFFFFFF0
FFFFFFFFFFFFFFFFFFF0
FFFFFFFFFFFFFFFFFFF0
FFFFFFFFFFFFFFFFFFF0
FFFFFFFFFFFFFFFFFFF0
FFFFFFFFFFFFFFFFFFF0
FFFFFFFFFFFFFFFFFFF0
FFFFFFFFFFFFFFFFFFF0
FFFFFFFFFFFFFFFFFFF0
FFFFFFFFFFFFFFFFFFF0
FFFFFFFFFFFFFFFFFFF0
FFFFFFFFFFFFFFFFFFF0
FFFFFFFFFFFFFFFFFFF0
FFFFFFFFFFFFFFFFFFF0
FFFFFFFFFFFFFFFFFFF0
FFFFFFFFFFFFFFFFFFF0
FFFFFFFFFFFFFFFFFFF0
FFFFFFFFFFFFFFFFFFF0
FFFFFFFFFFFFFFFFFFF0
FFFFFFFFFFFFFFFFFFF0
ENDCHAR
STARTCHAR Otilde
ENCODING 213
SWIDTH 911 0
DWIDTH 71 0
BBX 64 26 4 18
BITMAP
007F000000000000
00FFC00000000002
00E3F8000000001F
00C07C00000000FE
00C00800000007F0
00F8000000001FC0
007F00000000FE00
001FC0000007F000
0003F800001FC000
00007F0000FE0000
00001FC003F00000
000003F803800000
0000007F00000000
0000001FE0000000
00000003F8000000
000001807F000000
00000FC00FE00000
00003F8003FC0000
0001FC00007F0000
000FE000000FE000
003F80000003FC00
01FC000000007F00
07E0000000000FE0
3F800000000001FC
FC0000000000007F
E00000000000000F
ENDCHAR
STARTCHAR Odieresis
ENCODING 214
SWIDTH 824 0
DWIDTH 64 0
BBX 51 54 6 3
BITMAP
000001E0000000
000001F0000000
000003F0000000
000003F8000000
000003F8000000
000007FC000000
000007FC000000
00000FFE000000
00000FBE000000
00000FBF000000
00001F1F000000
00001F1F000000
00003E0F800000
00003E0F800000
00007C07C00000
00007C07C00000
0000F803E00000
0000F803E00000
0001F001F00000
0001F001F00000
0003E000F80000
0003E000F80000
0007C0007C0000
0007C0007C0000
000F80003E0000
000F80003E0000
001F00001F0000
001F00001F0000
003E00000F8000
003E00000F8000
007C000007C000
007C000007C000
00F8000007E000
00F8000003E000
01F0000003F000
01F0000001F000
03E0000001F000
03E0000000F800
07E0000000F800
07C00000007C00
0FC00000007C00
0F800000003E00
1F800000003E00
1F000000001F00
1F000000001F00
3E000000000F80
3E000000000F80
7C0000000007C0
7C0000000007C0
F80000000003E0
F80000000003E0
F00000000001E0
F00000000001E0
600000000000C0
ENDCHAR
STARTCHAR multiply
ENCODING 215
SWIDTH 483 0
DWIDTH 38 0
BBX 25 38 8 13
BITMAP
FC000000
FC000000
FC000000
FC000000
FC000000
FC000000
FC000000
FC004000
FC00E000
FC01F000
FC01F800
F803F000
F807E000
F80FC000
FC1F8000
FC3F0000
FE7E0000
FFFC0000
FFFC0000
FFF80000
FFF80000
FFF80000
FFF80000
FFFC0000
FDFE0000
F87F0000
F83F8000
F81FC000
F80FE000
F807E000
F807F000
F803F800
F801FC00
F800FC00
F8007E00
F8007F00
F8003F00
F8001F80
ENDCHAR
STARTCHAR Oslash
ENCODING 216
SWIDTH 965 0
DWIDTH 75 0
BBX 71 33 4 14
BITMAP
000000000007C00000
000000780007C00000
000000780007C00000
F80000780007C00000
F80000780007C00000
F80000780007C00000
F800007C0007C00000
F800007F0007C00000
F800007FFF07C00000
F801807FFF07C00000
F803C07FFF07C7FC00
F807E07FCF07FFFF80
F80FC07E0007FFFFE0
F81F007C0007FFFFF0
F83E007C0007F003F8
FCFC007C0007C001FC
FFF800780007C000FC
FFF000780007C0007E
FFF000780007C0007E
FFF000780007C0007E
FFF000780007C0003E
FFF8007C0007C0003E
F9FC007C0007C0003E
F8FE007C0007C0007E
F87F007C0007C0007E
F83F807C0007C0007E
F80FC07C0007C000FC
F80FE07E0007C001F8
F807E07F0107C007F8
F803F03FFF87FFFFF0
F801F81FFF87FFFFC0
F800FC0FFF87FFFF00
F8007C03FE00FFF800
ENDCHAR
STARTCHAR Ugrave
ENCODING 217
SWIDTH 1014 0
DWIDTH 79 0
BBX 78 53 1 5
BITMAP
000000000001C0000000
000000000003E0000000
000000000007E0000018
00000000000FC000007C
00000000001FC00000FC
00000000003F800001FC
00000000007F000003F8
0000000000FE000007F0
0000000001FC00000FE0
0000000003F800001FC0
0000000007F000003F80
000000000FE000007F00
000000001FC00000FE00
000000003F800001FC00
000000007F000003F800
00000000FE000007F000
00000001FC00000FE000
00000003F800001FC000
00000007F000003F8000
0000000FE000007F0000
0000001FC00000FE0000
0000003F800001FC0000
0000007F000003F80000
000000FE000007F00000
000001FC00000FE00000
000003F800001FC00000
000007F000003F800000
00000FE000007F000000
00001FC00000FE000000
00003F800001FC000000
00007F000003F8000000
0000FE000007F0000000
0001FC00000FE0000000
0003F800001FC0000000
0007F000003F80000000
000FE000007F00000000
001FC00000FE00000000
003F800001FC00000000
007F000003F800000000
00FE000007F000000000
01FC00000FE000000000
03F800001FC000000000
07F000003F8000000000
0FE000007F0000000000
1FC00000FE0000000000
3F800001FC0000000000
7F000003F80000000000
FE000007F00000000000
FC00000FE00000000000
7800000FC00000000000
2000001F800000000000
0000000F000000000000
00000006000000000000
ENDCHAR
STARTCHAR Uacute
ENCODING 218
SWIDTH 965 0
DWIDTH 75 0
BBX 71 47 4 0
BITMAP
000000000007C00000
000000000007C00000
000000000007C00000
000000000007C00000
000000000007C00000
000000000007C00000
000000000007C00000
000000000007C00000
000000000007C00000
02F000000007C00000
FFFE00000007C7FC00
FFFF8000FF87FFFF80
FFFFC003FFE7FFFFE0
F807E00FFFE7FFFFF0
F801F01FFFC7F003F8
F800F81FFFC7C001FC
F800F83F8007C000FC
F800783F0007C0007E
F8007C3E0007C0007E
F8007C7E0007C0007E
F8007C7E0007C0003E
F8007C7C0007C0003E
F8007C7C0007C0003E
F8007C7C0007C0007E
F800787C0007C0007E
F800787C0007C0007E
F800F87FFFC7C000FC
F801F07FFFC7C001FC
FC03F07FFFC7C003F8
FFFFE07FFFC7E01FF0
FFFFC07C0007FFFFE0
FFFF807C0007FFFF80
F9FE007C0003FFFE00
F800007C0000000000
F800007C0000000000
F800007C0000000000
F800007C0000000000
F800007C0000000000
F800007C0000000000
F800007C0000000000
0000007C0000000000
0000007C0000000000
0000007C0000000000
0000007C0000000000
0000007C0000000000
0000007C0000000000
0000007C0000000000
ENDCHAR
STARTCHAR Ucircumflex
ENCODING 219
SWIDTH 965 0
DWIDTH 75 0
BBX 55 29 12 17
BITMAP
0000000001F800
0000000001F800
0000000001F800
0000000001F800
0000000001F800
1FFC03F801F800
FFFF1FFF01F800
FFFFFFFF81F800
FFFFFFFFC1F800
F007F00FC1F800
F003E007C1F800
F003E003E1F800
F001E003E1F800
F001F003E1F800
F001F003E1F800
F001F003E1F800
F001F003E1F800
F001F003E1F800
F001F003E1F800
F001F003E1F800
F001F003E1F800
F001F003E1F800
F001F003E1FC00
F001F003E1FC00
F001F003E1FFC0
F001F003E0FFFE
F001F003E0FFFE
F001F003E03FFC
F001F003E003FC
ENDCHAR
STARTCHAR Udieresis
ENCODING 220
SWIDTH 965 0
DWIDTH 75 0
BBX 61 24 9 18
BITMAP
1FFC07F800007F80
FFFF1FFF01FFFFF8
FFFFFFFF83FFFFF0
FFFFFFFF83FFFFF0
F007F00FC3F80000
F003E007C3F80000
F003E003E3F80000
F001E003E3F80000
F001E003E3F80000
F001F003E3F80000
F001F003E3F80000
F001F003E3F80000
F001F003E3F80000
F001F003E3F80000
F001F003E3F80000
F001F003E3F80000
F001F003E3F80000
F001F003E3F80000
F001F003E3F80000
F001F003E3F80000
F001F003E3F80000
F001F003E3F80000
F001F003E3F80000
F001F003E0000000
ENDCHAR
STARTCHAR Yacute
ENCODING 221
SWIDTH 1067 0
DWIDTH 83 0
BBX 56 24 15 23
BITMAP
00000FFFF00000
0000FFFFFF0000
0007FFFFFFE000
001FFFFFFFF800
003FFFFFFFFE00
00FFFC003FFF00
01FFC00003FF80
03FF000000FFC0
07FC0000003FE0
0FF00000000FF0
0FC000000003F8
1F8000000001F8
3F0000000000FC
3E00000000007C
7C00000000003E
7800000000001F
F800000000000F
F000000000000F
E0000000000007
E0000000000007
C0000000000003
C0000000000001
80000000000001
80000000000001
ENDCHAR
STARTCHAR Thorn
ENCODING 222
SWIDTH 936 0
DWIDTH 73 0
BBX 73 75 0 -13
BITMAP
00000000000000000400
00000000000000001E00
70000000000000003E00
F8000000000000007E00
FC00000000000000FC00
7E00000000000001F800
3F00000000000001F000
1F80000000000003E000
0FC0000000000007C000
07E000000000000F8000
03F000000000001F0000
01F800000000003E0000
00FC00000000007C0000
007E0000000000F80000
003F0000000001F80000
001F8000000003F00000
000FC000000007E00000
0007E00000000FC00000
0003F00000001F800000
0001F80000003F000000
0000FC0000003E000000
00007E0000007C000000
00003F000000F8000000
00001F800001F0000000
00000FC00003E0000000
000007E00007C0000000
000003F0000F80000000
000001F8001F00000000
000000FC003E00000000
0000007E007C00000000
0000003F00FC00000000
0000001F81F800000000
0000000FC1F000000000
00000007E3E000000000
00000003F3C000000000
00000001F80000000000
00000000FC0000000000
000000007E0000000000
000000003F0000000000
000000001F8000000000
000000000FC000000000
0000000007E000000000
0000000003F000000000
0000000001F000000000
0000000000F800000000
00000000007C00000000
00000000003E00000000
00000000001F00000000
00000000000F80000000
00000000000FC0000000
000000000007E0000000
000000000003F0000000
000000000001F8000000
000000000000FC000000
0000000000007E000000
0000000000003F000000
0000000000001F800000
0000000000000FC00000
00000000000007E00000
00000000000003F00000
00000000000001F80000
00000000000000FC0000
000000000000007E0000
000000000000003F0000
000000000000001F8000
000000000000000FC000
0000000000000007E000
0000000000000003F000
0000000000000001F800
0000000000000000FC00
00000000000000007E00
00000000000000003F00
00000000000000001F80
00000000000000000F80
00000000000000000700
ENDCHAR
STARTCHAR germandbls
ENCODING 223
SWIDTH 998 0
DWIDTH 78 0
BBX 75 75 1 -14
BITMAP
38000000000000000000
7C000000000000000000
7E000000000000000000
3F000000000000000000
1F800000000000000000
0FC00000000000000000
07E00000000000000000
03F00000000000000000
01F00000000000000000
00FC0000000000000000
007E0000000000000000
003E0000000000000000
001F0000000000000000
000F8000000000000000
000FC000000000000000
0007E000000000000000
0003F000000000000000
0001F800000000000000
0000FC00000000000000
00007E00000000000000
00003F00000000000000
00001F80000000000000
00000FC0000000000000
000007E0000000000000
000003F0000000000000
000001F8000000000000
000000FC000000000000
0000007E000000000000
0000003F000000000000
0000001F800000000000
0000000FC00000000000
00000007E00000000000
00000003F00000000000
00000001F80000000000
00000000FC0000000000
000000007E0000000000
000000003F0000000000
000000001F8000000000
000000000FC000000000
0000000007E000000000
00000003C3F000000000
00000007C1F800000000
0000000FC0FC00000000
0000001F807E00000000
0000003F003F00000000
0000007E001F80000000
000000FC000FC0000000
000001F80007E0000000
000003F00003F0000000
000007E00001F8000000
00000FC00000FC000000
00001F8000007E000000
00003F0000003F000000
00007E0000001F800000
0000FC0000000FC00000
0001F800000007E00000
0003F000000003F00000
0007E000000001F80000
000FC000000000FC0000
001F80000000007C0000
003F00000000003E0000
007E00000000001F0000
00FC00000000000F8000
01F800000000000FC000
03F0000000000003E000
07E0000000000001F000
0FC0000000000001F800
1F80000000000000FC00
3F000000000000007E00
7E000000000000003F00
FC000000000000001F80
F8000000000000000FC0
F00000000000000007E0
600000000000000003E0
000000000000000001C0
ENDCHAR
STARTCHAR agrave
ENCODING 224
SWIDTH 998 0
DWIDTH 78 0
BBX 75 75 1 -14
BITMAP
000000000000000001C0
E00000000000000003E0
F00000000000000007E0
F8000000000000000FC0
7C000000000000001F80
3E000000000000003F00
1F000000000000007E00
0F80000000000000FC00
07C0000000000001F800
03E0000000000003F000
01F0000000000007E000
00F800000000000FC000
007C00000000001F8000
003E00000000003F0000
001F00000000007E0000
000F8000000000FC0000
0007C000000001F80000
0003E000000003F00000
0001F000000007E00000
0000F80000000FC00000
00007C0000001F800000
00003E0000003F000000
00001F0000007F000000
00000F8000007C000000
000007C00000F8000000
000003E00001F0000000
000001F00003E0000000
000000F80007C0000000
0000007C000F80000000
0000003E001F80000000
0000001F003F00000000
0000000F807E00000000
00000007C0FC00000000
00000003C1F800000000
0000000183F000000000
0000000007E000000000
000000000FC000000000
000000001F8000000000
000000003F0000000000
000000007E0000000000
00000000FC0000000000
00000001F80000000000
00000003F00000000000
00000007E00000000000
0000000FC00000000000
0000001F800000000000
0000003F000000000000
0000007E000000000000
000000FC000000000000
000001F8000000000000
000003F0000000000000
000007E0000000000000
00000FC0000000000000
00001F80000000000000
00003F00000000000000
00007E00000000000000
0000FC00000000000000
0001F800000000000000
0003F000000000000000
0007E000000000000000
000FC000000000000000
001F8000000000000000
003F0000000000000000
007E0000000000000000
00FC0000000000000000
01F80000000000000000
03F00000000000000000
07E00000000000000000
0FC00000000000000000
1F800000000000000000
1F000000000000000000
3E000000000000000000
7C000000000000000000
78000000000000000000
30000000000000000000
ENDCHAR
STARTCHAR aacute
ENCODING 225
SWIDTH 998 0
DWIDTH 78 0
BBX 75 74 1 -15
BITMAP
000000000000000001E0
000000000000000003E0
000000000000000007E0
00000000000000000FC0
00000000000000001F80
00000000000000003F00
00000000000000007E00
0000000000000000FC00
0000000000000001F800
0000000000000003F000
0000000000000007E000
000000000000000FC000
000000000000001F8000
000000000000003F0000
000000000000007E0000
00000000000000FC0000
00000000000001F80000
00000000000003F00000
00000000000007E00000
0000000000000FC00000
0000000000001F800000
0000000000003F000000
0000000000007E000000
000000000000FC000000
000000000001F8000000
000000000003F0000000
000000000007E0000000
00000000000FC0000000
00000000001F80000000
00000000003F00000000
00000000007E00000000
0000000000FC00000000
0000000001F800000000
0000000003F000000000
0000000007E000000000
000000001FC000000000
000000003F8000000000
000000003F0000000000
00000000FE0000000000
00000001FC0000000000
00000003F80000000000
00000007F0F000000000
0000000FE0F800000000
0000001F80FC00000000
0000003F007E00000000
0000007E003F00000000
000000FC001F80000000
000001F8000FC0000000
000003F00007E0000000
000007E00003F0000000
00000FC00001F8000000
00001F800000FC000000
00003F0000007E000000
00007E0000003F000000
0000FC0000001F800000
0001F80000000FC00000
0003F000000007E00000
0007E000000003F00000
000FC000000001F80000
001F8000000000FC0000
003F00000000007E0000
007E00000000003F0000
00FC00000000001F8000
01F800000000000FC000
03F0000000000007E000
07E0000000000003F000
0FC0000000000001F800
1F80000000000000FC00
3F000000000000007E00
7E000000000000003F00
FC000000000000001F80
F8000000000000000FC0
700000000000000007C0
000000000000000003C0
ENDCHAR
ENDFONT
